<?xml version="1.0" encoding="UTF-8" standalone="no"?>
<!DOCTYPE svg PUBLIC "-//W3C//DTD SVG 1.1//EN"
 "http://www.w3.org/Graphics/SVG/1.1/DTD/svg11.dtd">
<!-- Generated by graphviz version 2.43.0 (0)
 -->
<!-- Title: KosmosAlgebraHierarchy Pages: 1 -->
<svg width="1431pt" height="873pt"
 viewBox="0.00 0.00 1430.80 872.80" xmlns="http://www.w3.org/2000/svg" xmlns:xlink="http://www.w3.org/1999/xlink">
<g id="graph0" class="graph" transform="scale(1 1) rotate(0) translate(14.4 858.4)">
<title>KosmosAlgebraHierarchy</title>
<polygon fill="white" stroke="transparent" points="-14.4,14.4 -14.4,-858.4 1416.4,-858.4 1416.4,14.4 -14.4,14.4"/>
<text text-anchor="middle" x="701" y="-832" font-family="Helvetica,sans-Serif" font-size="10.00">Kosmos algebraic structures: inheritance overview</text>
<g id="clust1" class="cluster">
<title>cluster_Algebraic (one/two&#45;op)</title>
<path fill="white" stroke="#999999" d="M415,-161C415,-161 1390,-161 1390,-161 1396,-161 1402,-167 1402,-173 1402,-173 1402,-490 1402,-490 1402,-496 1396,-502 1390,-502 1390,-502 415,-502 415,-502 409,-502 403,-496 403,-490 403,-490 403,-173 403,-173 403,-167 409,-161 415,-161"/>
<text text-anchor="middle" x="902.5" y="-490" font-family="Helvetica,sans-Serif" font-size="10.00">Algebraic (one/two&#45;op)</text>
</g>
<g id="clust2" class="cluster">
<title>cluster_Modules &amp; spaces</title>
<path fill="white" stroke="#999999" d="M428,0C428,0 1082.5,0 1082.5,0 1088.5,0 1094.5,-6 1094.5,-12 1094.5,-12 1094.5,-141 1094.5,-141 1094.5,-147 1088.5,-153 1082.5,-153 1082.5,-153 428,-153 428,-153 422,-153 416,-147 416,-141 416,-141 416,-12 416,-12 416,-6 422,0 428,0"/>
<text text-anchor="middle" x="755.25" y="-141" font-family="Helvetica,sans-Serif" font-size="10.00">Modules &amp; spaces</text>
</g>
<g id="clust4" class="cluster">
<title>cluster_Misc</title>
<path fill="white" stroke="#999999" d="M827.5,-510C827.5,-510 1067,-510 1067,-510 1073,-510 1079,-516 1079,-522 1079,-522 1079,-677 1079,-677 1079,-683 1073,-689 1067,-689 1067,-689 827.5,-689 827.5,-689 821.5,-689 815.5,-683 815.5,-677 815.5,-677 815.5,-522 815.5,-522 815.5,-516 821.5,-510 827.5,-510"/>
<text text-anchor="middle" x="947.25" y="-677" font-family="Helvetica,sans-Serif" font-size="10.00">Misc</text>
</g>
<g id="clust3" class="cluster">
<title>cluster_Lattices</title>
<path fill="white" stroke="#999999" d="M12,-700C12,-700 620,-700 620,-700 626,-700 632,-706 632,-712 632,-712 632,-813 632,-813 632,-819 626,-825 620,-825 620,-825 12,-825 12,-825 6,-825 0,-819 0,-813 0,-813 0,-712 0,-712 0,-706 6,-700 12,-700"/>
<text text-anchor="middle" x="316" y="-813" font-family="Helvetica,sans-Serif" font-size="10.00">Lattices</text>
</g>
<!-- CayleyDickson -->
<g id="node1" class="node">
<title>CayleyDickson</title>
<path fill="#f0f0f0" stroke="#444444" d="M900.5,-662C900.5,-662 835.5,-662 835.5,-662 829.5,-662 823.5,-656 823.5,-650 823.5,-650 823.5,-638 823.5,-638 823.5,-632 829.5,-626 835.5,-626 835.5,-626 900.5,-626 900.5,-626 906.5,-626 912.5,-632 912.5,-638 912.5,-638 912.5,-650 912.5,-650 912.5,-656 906.5,-662 900.5,-662"/>
<text text-anchor="middle" x="868" y="-641.5" font-family="Helvetica,sans-Serif" font-size="10.00" fill="#111111">CayleyDickson</text>
</g>
<!-- CD -->
<g id="node3" class="node">
<title>CD</title>
<polygon fill="#fafafa" stroke="#444444" points="1065,-662 1017,-662 1017,-626 1071,-626 1071,-656 1065,-662"/>
<polyline fill="none" stroke="#444444" points="1065,-662 1065,-656 "/>
<polyline fill="none" stroke="#444444" points="1071,-656 1065,-656 "/>
<text text-anchor="middle" x="1044" y="-641.5" font-family="Helvetica,sans-Serif" font-size="10.00" fill="#111111">CD</text>
</g>
<!-- CayleyDickson&#45;&gt;CD -->
<g id="edge50" class="edge">
<title>CayleyDickson&#45;&gt;CD</title>
<path fill="none" stroke="#666666" stroke-dasharray="5,2" d="M912.91,-644C941.88,-644 979.39,-644 1006.68,-644"/>
<polygon fill="#666666" stroke="#666666" points="1006.96,-647.5 1016.96,-644 1006.96,-640.5 1006.96,-647.5"/>
</g>
<!-- InvolutiveAlgebra -->
<g id="node23" class="node">
<title>InvolutiveAlgebra</title>
<path fill="white" stroke="#444444" d="M907.5,-205C907.5,-205 828.5,-205 828.5,-205 822.5,-205 816.5,-199 816.5,-193 816.5,-193 816.5,-181 816.5,-181 816.5,-175 822.5,-169 828.5,-169 828.5,-169 907.5,-169 907.5,-169 913.5,-169 919.5,-175 919.5,-181 919.5,-181 919.5,-193 919.5,-193 919.5,-199 913.5,-205 907.5,-205"/>
<text text-anchor="middle" x="868" y="-184.5" font-family="Helvetica,sans-Serif" font-size="10.00" fill="#111111">InvolutiveAlgebra</text>
</g>
<!-- CayleyDickson&#45;&gt;InvolutiveAlgebra -->
<g id="edge6" class="edge">
<title>CayleyDickson&#45;&gt;InvolutiveAlgebra</title>
<path fill="none" stroke="#666666" d="M823.34,-632.53C814.76,-628.71 806.46,-623.65 800,-617 693.31,-507.13 613.91,-427.39 685.5,-292 709.88,-245.88 763.79,-218.55 806.73,-203.4"/>
<polygon fill="#666666" stroke="#666666" points="807.92,-206.69 816.27,-200.16 805.68,-200.06 807.92,-206.69"/>
<text text-anchor="middle" x="672" y="-294.8" font-family="Helvetica,sans-Serif" font-size="9.00" fill="#444444">extends</text>
</g>
<!-- PrimeField -->
<g id="node2" class="node">
<title>PrimeField</title>
<path fill="#f0f0f0" stroke="#444444" d="M890,-608C890,-608 846,-608 846,-608 840,-608 834,-602 834,-596 834,-596 834,-584 834,-584 834,-578 840,-572 846,-572 846,-572 890,-572 890,-572 896,-572 902,-578 902,-584 902,-584 902,-596 902,-596 902,-602 896,-608 890,-608"/>
<text text-anchor="middle" x="868" y="-587.5" font-family="Helvetica,sans-Serif" font-size="10.00" fill="#111111">PrimeField</text>
</g>
<!-- Field -->
<g id="node22" class="node">
<title>Field</title>
<path fill="white" stroke="#444444" d="M492.5,-384C492.5,-384 462.5,-384 462.5,-384 456.5,-384 450.5,-378 450.5,-372 450.5,-372 450.5,-360 450.5,-360 450.5,-354 456.5,-348 462.5,-348 462.5,-348 492.5,-348 492.5,-348 498.5,-348 504.5,-354 504.5,-360 504.5,-360 504.5,-372 504.5,-372 504.5,-378 498.5,-384 492.5,-384"/>
<text text-anchor="middle" x="477.5" y="-363.5" font-family="Helvetica,sans-Serif" font-size="10.00" fill="#111111">Field</text>
</g>
<!-- PrimeField&#45;&gt;Field -->
<g id="edge40" class="edge">
<title>PrimeField&#45;&gt;Field</title>
<path fill="none" stroke="#666666" d="M833.78,-583.33C777.56,-570.64 662.4,-538.43 587,-475 559.64,-451.98 569.34,-432.23 544,-407 535.09,-398.13 523.92,-390.25 513.34,-383.84"/>
<polygon fill="#666666" stroke="#666666" points="515.06,-380.79 504.66,-378.8 511.55,-386.85 515.06,-380.79"/>
<text text-anchor="middle" x="672" y="-562.8" font-family="Helvetica,sans-Serif" font-size="9.00" fill="#444444">extends</text>
</g>
<!-- Magma -->
<g id="node4" class="node">
<title>Magma</title>
<path fill="white" stroke="#444444" d="M1382,-431C1382,-431 1352,-431 1352,-431 1346,-431 1340,-425 1340,-419 1340,-419 1340,-407 1340,-407 1340,-401 1346,-395 1352,-395 1352,-395 1382,-395 1382,-395 1388,-395 1394,-401 1394,-407 1394,-407 1394,-419 1394,-419 1394,-425 1388,-431 1382,-431"/>
<text text-anchor="middle" x="1367" y="-410.5" font-family="Helvetica,sans-Serif" font-size="10.00" fill="#111111">Magma</text>
</g>
<!-- NonAssociativeSemigroup -->
<g id="node5" class="node">
<title>NonAssociativeSemigroup</title>
<path fill="white" stroke="#444444" d="M1285,-404C1285,-404 1164,-404 1164,-404 1158,-404 1152,-398 1152,-392 1152,-392 1152,-380 1152,-380 1152,-374 1158,-368 1164,-368 1164,-368 1285,-368 1285,-368 1291,-368 1297,-374 1297,-380 1297,-380 1297,-392 1297,-392 1297,-398 1291,-404 1285,-404"/>
<text text-anchor="middle" x="1224.5" y="-383.5" font-family="Helvetica,sans-Serif" font-size="10.00" fill="#111111">NonAssociativeSemigroup</text>
</g>
<!-- NonAssociativeSemigroup&#45;&gt;Magma -->
<g id="edge38" class="edge">
<title>NonAssociativeSemigroup&#45;&gt;Magma</title>
<path fill="none" stroke="#666666" d="M1297.4,-399.82C1308.72,-401.99 1319.99,-404.16 1330.02,-406.09"/>
<polygon fill="#666666" stroke="#666666" points="1329.5,-409.55 1339.98,-408 1330.82,-402.68 1329.5,-409.55"/>
</g>
<!-- NonAssociativeMonoid -->
<g id="node6" class="node">
<title>NonAssociativeMonoid</title>
<path fill="white" stroke="#444444" d="M1096,-408C1096,-408 992,-408 992,-408 986,-408 980,-402 980,-396 980,-396 980,-384 980,-384 980,-378 986,-372 992,-372 992,-372 1096,-372 1096,-372 1102,-372 1108,-378 1108,-384 1108,-384 1108,-396 1108,-396 1108,-402 1102,-408 1096,-408"/>
<text text-anchor="middle" x="1044" y="-387.5" font-family="Helvetica,sans-Serif" font-size="10.00" fill="#111111">NonAssociativeMonoid</text>
</g>
<!-- NonAssociativeMonoid&#45;&gt;NonAssociativeSemigroup -->
<g id="edge37" class="edge">
<title>NonAssociativeMonoid&#45;&gt;NonAssociativeSemigroup</title>
<path fill="none" stroke="#666666" d="M1108.18,-388.58C1119.01,-388.34 1130.4,-388.09 1141.63,-387.83"/>
<polygon fill="#666666" stroke="#666666" points="1141.96,-391.33 1151.88,-387.6 1141.8,-384.33 1141.96,-391.33"/>
</g>
<!-- NonAssociativeAlgebra -->
<g id="node7" class="node">
<title>NonAssociativeAlgebra</title>
<path fill="white" stroke="#444444" d="M1097,-235C1097,-235 991,-235 991,-235 985,-235 979,-229 979,-223 979,-223 979,-211 979,-211 979,-205 985,-199 991,-199 991,-199 1097,-199 1097,-199 1103,-199 1109,-205 1109,-211 1109,-211 1109,-223 1109,-223 1109,-229 1103,-235 1097,-235"/>
<text text-anchor="middle" x="1044" y="-214.5" font-family="Helvetica,sans-Serif" font-size="10.00" fill="#111111">NonAssociativeAlgebra</text>
</g>
<!-- Semigroup -->
<g id="node8" class="node">
<title>Semigroup</title>
<path fill="white" stroke="#444444" d="M1066.5,-455C1066.5,-455 1021.5,-455 1021.5,-455 1015.5,-455 1009.5,-449 1009.5,-443 1009.5,-443 1009.5,-431 1009.5,-431 1009.5,-425 1015.5,-419 1021.5,-419 1021.5,-419 1066.5,-419 1066.5,-419 1072.5,-419 1078.5,-425 1078.5,-431 1078.5,-431 1078.5,-443 1078.5,-443 1078.5,-449 1072.5,-455 1066.5,-455"/>
<text text-anchor="middle" x="1044" y="-434.5" font-family="Helvetica,sans-Serif" font-size="10.00" fill="#111111">Semigroup</text>
</g>
<!-- Semigroup&#45;&gt;Magma -->
<g id="edge44" class="edge">
<title>Semigroup&#45;&gt;Magma</title>
<path fill="none" stroke="#666666" d="M1078.75,-434.48C1139.46,-429.94 1266.61,-420.43 1329.37,-415.74"/>
<polygon fill="#666666" stroke="#666666" points="1329.87,-419.21 1339.59,-414.97 1329.35,-412.23 1329.87,-419.21"/>
<text text-anchor="middle" x="1224.5" y="-431.8" font-family="Helvetica,sans-Serif" font-size="9.00" fill="#444444">extends</text>
</g>
<!-- Semigroup&#45;&gt;NonAssociativeSemigroup -->
<g id="edge45" class="edge">
<title>Semigroup&#45;&gt;NonAssociativeSemigroup</title>
<path fill="none" stroke="#666666" d="M1078.57,-427.41C1098.9,-421.6 1125.64,-413.96 1150.62,-406.82"/>
<polygon fill="#666666" stroke="#666666" points="1151.8,-410.13 1160.45,-404.01 1149.87,-403.4 1151.8,-410.13"/>
</g>
<!-- Monoid -->
<g id="node9" class="node">
<title>Monoid</title>
<path fill="white" stroke="#444444" d="M883,-421C883,-421 853,-421 853,-421 847,-421 841,-415 841,-409 841,-409 841,-397 841,-397 841,-391 847,-385 853,-385 853,-385 883,-385 883,-385 889,-385 895,-391 895,-397 895,-397 895,-409 895,-409 895,-415 889,-421 883,-421"/>
<text text-anchor="middle" x="868" y="-400.5" font-family="Helvetica,sans-Serif" font-size="10.00" fill="#111111">Monoid</text>
</g>
<!-- Monoid&#45;&gt;NonAssociativeMonoid -->
<g id="edge34" class="edge">
<title>Monoid&#45;&gt;NonAssociativeMonoid</title>
<path fill="none" stroke="#666666" d="M895.05,-401.05C914.89,-399.57 943.23,-397.45 969.8,-395.47"/>
<polygon fill="#666666" stroke="#666666" points="970.17,-398.95 979.88,-394.72 969.65,-391.97 970.17,-398.95"/>
</g>
<!-- Monoid&#45;&gt;Semigroup -->
<g id="edge33" class="edge">
<title>Monoid&#45;&gt;Semigroup</title>
<path fill="none" stroke="#666666" d="M895.05,-408.09C922.51,-413.46 966.25,-422 999.06,-428.41"/>
<polygon fill="#666666" stroke="#666666" points="998.81,-431.93 1009.3,-430.41 1000.16,-425.06 998.81,-431.93"/>
</g>
<!-- CommutativeSemigroup -->
<g id="node10" class="node">
<title>CommutativeSemigroup</title>
<path fill="white" stroke="#444444" d="M924,-475C924,-475 812,-475 812,-475 806,-475 800,-469 800,-463 800,-463 800,-451 800,-451 800,-445 806,-439 812,-439 812,-439 924,-439 924,-439 930,-439 936,-445 936,-451 936,-451 936,-463 936,-463 936,-469 930,-475 924,-475"/>
<text text-anchor="middle" x="868" y="-454.5" font-family="Helvetica,sans-Serif" font-size="10.00" fill="#111111">CommutativeSemigroup</text>
</g>
<!-- CommutativeSemigroup&#45;&gt;Semigroup -->
<g id="edge10" class="edge">
<title>CommutativeSemigroup&#45;&gt;Semigroup</title>
<path fill="none" stroke="#666666" d="M936.27,-449.27C957.41,-446.84 980.19,-444.22 999.26,-442.03"/>
<polygon fill="#666666" stroke="#666666" points="999.9,-445.48 1009.43,-440.86 999.1,-438.52 999.9,-445.48"/>
</g>
<!-- CommutativeMonoid -->
<g id="node11" class="node">
<title>CommutativeMonoid</title>
<path fill="white" stroke="#444444" d="M719.5,-466C719.5,-466 624.5,-466 624.5,-466 618.5,-466 612.5,-460 612.5,-454 612.5,-454 612.5,-442 612.5,-442 612.5,-436 618.5,-430 624.5,-430 624.5,-430 719.5,-430 719.5,-430 725.5,-430 731.5,-436 731.5,-442 731.5,-442 731.5,-454 731.5,-454 731.5,-460 725.5,-466 719.5,-466"/>
<text text-anchor="middle" x="672" y="-445.5" font-family="Helvetica,sans-Serif" font-size="10.00" fill="#111111">CommutativeMonoid</text>
</g>
<!-- CommutativeMonoid&#45;&gt;Monoid -->
<g id="edge7" class="edge">
<title>CommutativeMonoid&#45;&gt;Monoid</title>
<path fill="none" stroke="#666666" d="M731.73,-434.38C763.97,-426.9 802.92,-417.86 830.73,-411.41"/>
<polygon fill="#666666" stroke="#666666" points="831.86,-414.74 840.81,-409.08 830.28,-407.93 831.86,-414.74"/>
</g>
<!-- CommutativeMonoid&#45;&gt;CommutativeSemigroup -->
<g id="edge8" class="edge">
<title>CommutativeMonoid&#45;&gt;CommutativeSemigroup</title>
<path fill="none" stroke="#666666" d="M731.73,-450.72C750.06,-451.58 770.56,-452.53 789.95,-453.43"/>
<polygon fill="#666666" stroke="#666666" points="789.82,-456.92 799.97,-453.89 790.14,-449.93 789.82,-456.92"/>
</g>
<!-- Quasigroup -->
<g id="node12" class="node">
<title>Quasigroup</title>
<path fill="white" stroke="#444444" d="M1068,-367C1068,-367 1020,-367 1020,-367 1014,-367 1008,-361 1008,-355 1008,-355 1008,-343 1008,-343 1008,-337 1014,-331 1020,-331 1020,-331 1068,-331 1068,-331 1074,-331 1080,-337 1080,-343 1080,-343 1080,-355 1080,-355 1080,-361 1074,-367 1068,-367"/>
<text text-anchor="middle" x="1044" y="-346.5" font-family="Helvetica,sans-Serif" font-size="10.00" fill="#111111">Quasigroup</text>
</g>
<!-- Quasigroup&#45;&gt;NonAssociativeSemigroup -->
<g id="edge41" class="edge">
<title>Quasigroup&#45;&gt;NonAssociativeSemigroup</title>
<path fill="none" stroke="#666666" d="M1080.27,-356.31C1097.98,-359.98 1120.23,-364.59 1141.88,-369.08"/>
<polygon fill="#666666" stroke="#666666" points="1141.26,-372.53 1151.76,-371.13 1142.68,-365.67 1141.26,-372.53"/>
</g>
<!-- Loop -->
<g id="node13" class="node">
<title>Loop</title>
<path fill="white" stroke="#444444" d="M883,-367C883,-367 853,-367 853,-367 847,-367 841,-361 841,-355 841,-355 841,-343 841,-343 841,-337 847,-331 853,-331 853,-331 883,-331 883,-331 889,-331 895,-337 895,-343 895,-343 895,-355 895,-355 895,-361 889,-367 883,-367"/>
<text text-anchor="middle" x="868" y="-346.5" font-family="Helvetica,sans-Serif" font-size="10.00" fill="#111111">Loop</text>
</g>
<!-- Loop&#45;&gt;NonAssociativeMonoid -->
<g id="edge27" class="edge">
<title>Loop&#45;&gt;NonAssociativeMonoid</title>
<path fill="none" stroke="#666666" d="M895.05,-355.14C914.89,-359.81 943.23,-366.49 969.8,-372.75"/>
<polygon fill="#666666" stroke="#666666" points="969.34,-376.24 979.88,-375.13 970.95,-369.43 969.34,-376.24"/>
</g>
<!-- Loop&#45;&gt;Quasigroup -->
<g id="edge26" class="edge">
<title>Loop&#45;&gt;Quasigroup</title>
<path fill="none" stroke="#666666" d="M895.05,-349C922.08,-349 964.89,-349 997.52,-349"/>
<polygon fill="#666666" stroke="#666666" points="997.73,-352.5 1007.73,-349 997.73,-345.5 997.73,-352.5"/>
</g>
<!-- Group -->
<g id="node14" class="node">
<title>Group</title>
<path fill="white" stroke="#444444" d="M687,-425C687,-425 657,-425 657,-425 651,-425 645,-419 645,-413 645,-413 645,-401 645,-401 645,-395 651,-389 657,-389 657,-389 687,-389 687,-389 693,-389 699,-395 699,-401 699,-401 699,-413 699,-413 699,-419 693,-425 687,-425"/>
<text text-anchor="middle" x="672" y="-404.5" font-family="Helvetica,sans-Serif" font-size="10.00" fill="#111111">Group</text>
</g>
<!-- Group&#45;&gt;Monoid -->
<g id="edge16" class="edge">
<title>Group&#45;&gt;Monoid</title>
<path fill="none" stroke="#666666" d="M699.16,-406.46C733.1,-405.76 792.48,-404.54 830.75,-403.75"/>
<polygon fill="#666666" stroke="#666666" points="831.02,-407.24 840.94,-403.54 830.87,-400.24 831.02,-407.24"/>
</g>
<!-- Group&#45;&gt;Loop -->
<g id="edge17" class="edge">
<title>Group&#45;&gt;Loop</title>
<path fill="none" stroke="#666666" d="M699.22,-400.56C715.84,-396.38 737.77,-390.66 757,-385 781.96,-377.65 809.82,-368.53 831.25,-361.3"/>
<polygon fill="#666666" stroke="#666666" points="832.56,-364.55 840.91,-358.03 830.32,-357.92 832.56,-364.55"/>
</g>
<!-- AbelianGroup -->
<g id="node15" class="node">
<title>AbelianGroup</title>
<path fill="white" stroke="#444444" d="M507,-452C507,-452 448,-452 448,-452 442,-452 436,-446 436,-440 436,-440 436,-428 436,-428 436,-422 442,-416 448,-416 448,-416 507,-416 507,-416 513,-416 519,-422 519,-428 519,-428 519,-440 519,-440 519,-446 513,-452 507,-452"/>
<text text-anchor="middle" x="477.5" y="-431.5" font-family="Helvetica,sans-Serif" font-size="10.00" fill="#111111">AbelianGroup</text>
</g>
<!-- AbelianGroup&#45;&gt;CommutativeMonoid -->
<g id="edge2" class="edge">
<title>AbelianGroup&#45;&gt;CommutativeMonoid</title>
<path fill="none" stroke="#666666" d="M519.32,-436.97C543.41,-438.72 574.51,-440.98 602.28,-443"/>
<polygon fill="#666666" stroke="#666666" points="602.11,-446.5 612.34,-443.73 602.62,-439.52 602.11,-446.5"/>
</g>
<!-- AbelianGroup&#45;&gt;Group -->
<g id="edge1" class="edge">
<title>AbelianGroup&#45;&gt;Group</title>
<path fill="none" stroke="#666666" d="M519.32,-428.27C553.58,-423.47 602.05,-416.67 634.91,-412.06"/>
<polygon fill="#666666" stroke="#666666" points="635.57,-415.5 644.99,-410.65 634.6,-408.57 635.57,-415.5"/>
</g>
<!-- Hemiring -->
<g id="node16" class="node">
<title>Hemiring</title>
<path fill="white" stroke="#444444" d="M1243.5,-282C1243.5,-282 1205.5,-282 1205.5,-282 1199.5,-282 1193.5,-276 1193.5,-270 1193.5,-270 1193.5,-258 1193.5,-258 1193.5,-252 1199.5,-246 1205.5,-246 1205.5,-246 1243.5,-246 1243.5,-246 1249.5,-246 1255.5,-252 1255.5,-258 1255.5,-258 1255.5,-270 1255.5,-270 1255.5,-276 1249.5,-282 1243.5,-282"/>
<text text-anchor="middle" x="1224.5" y="-261.5" font-family="Helvetica,sans-Serif" font-size="10.00" fill="#111111">Hemiring</text>
</g>
<!-- Semiring -->
<g id="node17" class="node">
<title>Semiring</title>
<path fill="white" stroke="#444444" d="M1062,-282C1062,-282 1026,-282 1026,-282 1020,-282 1014,-276 1014,-270 1014,-270 1014,-258 1014,-258 1014,-252 1020,-246 1026,-246 1026,-246 1062,-246 1062,-246 1068,-246 1074,-252 1074,-258 1074,-258 1074,-270 1074,-270 1074,-276 1068,-282 1062,-282"/>
<text text-anchor="middle" x="1044" y="-261.5" font-family="Helvetica,sans-Serif" font-size="10.00" fill="#111111">Semiring</text>
</g>
<!-- Semiring&#45;&gt;Hemiring -->
<g id="edge46" class="edge">
<title>Semiring&#45;&gt;Hemiring</title>
<path fill="none" stroke="#666666" d="M1074.08,-264C1103.67,-264 1149.79,-264 1182.96,-264"/>
<polygon fill="#666666" stroke="#666666" points="1183.24,-267.5 1193.24,-264 1183.24,-260.5 1183.24,-267.5"/>
</g>
<!-- CommutativeSemiring -->
<g id="node18" class="node">
<title>CommutativeSemiring</title>
<path fill="white" stroke="#444444" d="M919.5,-313C919.5,-313 816.5,-313 816.5,-313 810.5,-313 804.5,-307 804.5,-301 804.5,-301 804.5,-289 804.5,-289 804.5,-283 810.5,-277 816.5,-277 816.5,-277 919.5,-277 919.5,-277 925.5,-277 931.5,-283 931.5,-289 931.5,-289 931.5,-301 931.5,-301 931.5,-307 925.5,-313 919.5,-313"/>
<text text-anchor="middle" x="868" y="-292.5" font-family="Helvetica,sans-Serif" font-size="10.00" fill="#111111">CommutativeSemiring</text>
</g>
<!-- CommutativeSemiring&#45;&gt;Semiring -->
<g id="edge11" class="edge">
<title>CommutativeSemiring&#45;&gt;Semiring</title>
<path fill="none" stroke="#666666" d="M931.82,-283.81C955.91,-279.52 982.69,-274.74 1003.93,-270.96"/>
<polygon fill="#666666" stroke="#666666" points="1004.65,-274.39 1013.88,-269.19 1003.42,-267.5 1004.65,-274.39"/>
</g>
<!-- Ring -->
<g id="node19" class="node">
<title>Ring</title>
<path fill="white" stroke="#444444" d="M883,-259C883,-259 853,-259 853,-259 847,-259 841,-253 841,-247 841,-247 841,-235 841,-235 841,-229 847,-223 853,-223 853,-223 883,-223 883,-223 889,-223 895,-229 895,-235 895,-235 895,-247 895,-247 895,-253 889,-259 883,-259"/>
<text text-anchor="middle" x="868" y="-238.5" font-family="Helvetica,sans-Serif" font-size="10.00" fill="#111111">Ring</text>
</g>
<!-- Ring&#45;&gt;NonAssociativeAlgebra -->
<g id="edge42" class="edge">
<title>Ring&#45;&gt;NonAssociativeAlgebra</title>
<path fill="none" stroke="#666666" d="M895.05,-237.41C914.64,-234.71 942.51,-230.86 968.79,-227.24"/>
<polygon fill="#666666" stroke="#666666" points="969.33,-230.69 978.76,-225.86 968.38,-223.76 969.33,-230.69"/>
</g>
<!-- Ring&#45;&gt;Semiring -->
<g id="edge43" class="edge">
<title>Ring&#45;&gt;Semiring</title>
<path fill="none" stroke="#666666" d="M895.05,-244.44C923.79,-248.24 970.37,-254.4 1003.59,-258.79"/>
<polygon fill="#666666" stroke="#666666" points="1003.49,-262.31 1013.86,-260.15 1004.41,-255.37 1003.49,-262.31"/>
</g>
<!-- CommutativeRing -->
<g id="node20" class="node">
<title>CommutativeRing</title>
<path fill="white" stroke="#444444" d="M712.5,-343C712.5,-343 631.5,-343 631.5,-343 625.5,-343 619.5,-337 619.5,-331 619.5,-331 619.5,-319 619.5,-319 619.5,-313 625.5,-307 631.5,-307 631.5,-307 712.5,-307 712.5,-307 718.5,-307 724.5,-313 724.5,-319 724.5,-319 724.5,-331 724.5,-331 724.5,-337 718.5,-343 712.5,-343"/>
<text text-anchor="middle" x="672" y="-322.5" font-family="Helvetica,sans-Serif" font-size="10.00" fill="#111111">CommutativeRing</text>
</g>
<!-- CommutativeRing&#45;&gt;Ring -->
<g id="edge9" class="edge">
<title>CommutativeRing&#45;&gt;Ring</title>
<path fill="none" stroke="#666666" d="M724.92,-315.11C735.84,-312.02 747.05,-308.05 757,-303 778.97,-291.85 778.78,-280.52 800,-268 809.66,-262.3 820.74,-257.29 831.08,-253.18"/>
<polygon fill="#666666" stroke="#666666" points="832.59,-256.35 840.69,-249.52 830.1,-249.81 832.59,-256.35"/>
</g>
<!-- DivisionRing -->
<g id="node21" class="node">
<title>DivisionRing</title>
<path fill="white" stroke="#444444" d="M699,-384C699,-384 645,-384 645,-384 639,-384 633,-378 633,-372 633,-372 633,-360 633,-360 633,-354 639,-348 645,-348 645,-348 699,-348 699,-348 705,-348 711,-354 711,-360 711,-360 711,-372 711,-372 711,-378 705,-384 699,-384"/>
<text text-anchor="middle" x="672" y="-363.5" font-family="Helvetica,sans-Serif" font-size="10.00" fill="#111111">DivisionRing</text>
</g>
<!-- DivisionRing&#45;&gt;Ring -->
<g id="edge12" class="edge">
<title>DivisionRing&#45;&gt;Ring</title>
<path fill="none" stroke="#666666" d="M711.4,-362.48C726.82,-359.5 743.98,-354.02 757,-344 787.75,-320.33 770.81,-293.58 800,-268 808.88,-260.22 820.3,-254.51 831.18,-250.4"/>
<polygon fill="#666666" stroke="#666666" points="832.6,-253.61 840.93,-247.06 830.34,-246.99 832.6,-253.61"/>
</g>
<!-- HasReciprocal -->
<g id="node42" class="node">
<title>HasReciprocal</title>
<path fill="white" stroke="#444444" d="M899,-554C899,-554 837,-554 837,-554 831,-554 825,-548 825,-542 825,-542 825,-530 825,-530 825,-524 831,-518 837,-518 837,-518 899,-518 899,-518 905,-518 911,-524 911,-530 911,-530 911,-542 911,-542 911,-548 905,-554 899,-554"/>
<text text-anchor="middle" x="868" y="-533.5" font-family="Helvetica,sans-Serif" font-size="10.00" fill="#111111">HasReciprocal</text>
</g>
<!-- DivisionRing&#45;&gt;HasReciprocal -->
<g id="edge13" class="edge">
<title>DivisionRing&#45;&gt;HasReciprocal</title>
<path fill="none" stroke="#666666" d="M711.41,-368.33C727.19,-371.1 744.63,-376.73 757,-388 798.27,-425.59 761.97,-465.14 800,-506 804.45,-510.77 809.79,-514.84 815.5,-518.29"/>
<polygon fill="#666666" stroke="#666666" points="814.23,-521.58 824.69,-523.21 817.53,-515.4 814.23,-521.58"/>
</g>
<!-- Field&#45;&gt;CommutativeRing -->
<g id="edge15" class="edge">
<title>Field&#45;&gt;CommutativeRing</title>
<path fill="none" stroke="#666666" d="M504.86,-360.39C531.57,-354.7 573.86,-345.69 609.09,-338.19"/>
<polygon fill="#666666" stroke="#666666" points="610.24,-341.52 619.29,-336.01 608.78,-334.67 610.24,-341.52"/>
</g>
<!-- Field&#45;&gt;DivisionRing -->
<g id="edge14" class="edge">
<title>Field&#45;&gt;DivisionRing</title>
<path fill="none" stroke="#666666" d="M504.86,-366C535.08,-366 585.22,-366 622.53,-366"/>
<polygon fill="#666666" stroke="#666666" points="622.69,-369.5 632.69,-366 622.69,-362.5 622.69,-369.5"/>
</g>
<!-- InvolutiveAlgebra&#45;&gt;NonAssociativeAlgebra -->
<g id="edge19" class="edge">
<title>InvolutiveAlgebra&#45;&gt;NonAssociativeAlgebra</title>
<path fill="none" stroke="#666666" d="M919.8,-195.76C935.08,-198.39 952.18,-201.34 968.66,-204.18"/>
<polygon fill="#666666" stroke="#666666" points="968.37,-207.68 978.82,-205.93 969.56,-200.79 968.37,-207.68"/>
</g>
<!-- InvolutiveRing -->
<g id="node24" class="node">
<title>InvolutiveRing</title>
<path fill="white" stroke="#444444" d="M703.5,-246C703.5,-246 640.5,-246 640.5,-246 634.5,-246 628.5,-240 628.5,-234 628.5,-234 628.5,-222 628.5,-222 628.5,-216 634.5,-210 640.5,-210 640.5,-210 703.5,-210 703.5,-210 709.5,-210 715.5,-216 715.5,-222 715.5,-222 715.5,-234 715.5,-234 715.5,-240 709.5,-246 703.5,-246"/>
<text text-anchor="middle" x="672" y="-225.5" font-family="Helvetica,sans-Serif" font-size="10.00" fill="#111111">InvolutiveRing</text>
</g>
<!-- InvolutiveRing&#45;&gt;Ring -->
<g id="edge21" class="edge">
<title>InvolutiveRing&#45;&gt;Ring</title>
<path fill="none" stroke="#666666" d="M715.57,-230.85C750.1,-233.17 798.21,-236.39 830.88,-238.58"/>
<polygon fill="#666666" stroke="#666666" points="830.69,-242.07 840.9,-239.25 831.16,-235.09 830.69,-242.07"/>
</g>
<!-- InvolutiveRing&#45;&gt;InvolutiveAlgebra -->
<g id="edge20" class="edge">
<title>InvolutiveRing&#45;&gt;InvolutiveAlgebra</title>
<path fill="none" stroke="#666666" d="M715.57,-219C742.11,-213.39 776.69,-206.09 806.1,-199.87"/>
<polygon fill="#666666" stroke="#666666" points="807.21,-203.21 816.27,-197.72 805.76,-196.37 807.21,-203.21"/>
</g>
<!-- NonAssociativeDivisionAlgebra -->
<g id="node25" class="node">
<title>NonAssociativeDivisionAlgebra</title>
<path fill="white" stroke="#444444" d="M745,-287C745,-287 599,-287 599,-287 593,-287 587,-281 587,-275 587,-275 587,-263 587,-263 587,-257 593,-251 599,-251 599,-251 745,-251 745,-251 751,-251 757,-257 757,-263 757,-263 757,-275 757,-275 757,-281 751,-287 745,-287"/>
<text text-anchor="middle" x="672" y="-266.5" font-family="Helvetica,sans-Serif" font-size="10.00" fill="#111111">NonAssociativeDivisionAlgebra</text>
</g>
<!-- NonAssociativeDivisionAlgebra&#45;&gt;InvolutiveAlgebra -->
<g id="edge35" class="edge">
<title>NonAssociativeDivisionAlgebra&#45;&gt;InvolutiveAlgebra</title>
<path fill="none" stroke="#666666" d="M748.21,-250.94C751.21,-249.7 754.16,-248.39 757,-247 778.64,-236.41 779.08,-225.95 800,-214 802.69,-212.46 805.49,-210.97 808.34,-209.53"/>
<polygon fill="#666666" stroke="#666666" points="810.09,-212.58 817.6,-205.11 807.07,-206.26 810.09,-212.58"/>
</g>
<!-- NonAssociativeDivisionAlgebra&#45;&gt;HasReciprocal -->
<g id="edge36" class="edge">
<title>NonAssociativeDivisionAlgebra&#45;&gt;HasReciprocal</title>
<path fill="none" stroke="#666666" d="M753.08,-287.27C754.45,-288.44 755.76,-289.68 757,-291 823.85,-361.9 739.21,-429.84 800,-506 804.33,-511.42 809.84,-515.89 815.84,-519.57"/>
<polygon fill="#666666" stroke="#666666" points="814.44,-522.79 824.91,-524.42 817.74,-516.62 814.44,-522.79"/>
</g>
<!-- NormedDivisionAlgebra -->
<g id="node26" class="node">
<title>NormedDivisionAlgebra</title>
<path fill="white" stroke="#444444" d="M532,-287C532,-287 423,-287 423,-287 417,-287 411,-281 411,-275 411,-275 411,-263 411,-263 411,-257 417,-251 423,-251 423,-251 532,-251 532,-251 538,-251 544,-257 544,-263 544,-263 544,-275 544,-275 544,-281 538,-287 532,-287"/>
<text text-anchor="middle" x="477.5" y="-266.5" font-family="Helvetica,sans-Serif" font-size="10.00" fill="#111111">NormedDivisionAlgebra</text>
</g>
<!-- NormedDivisionAlgebra&#45;&gt;NonAssociativeDivisionAlgebra -->
<g id="edge39" class="edge">
<title>NormedDivisionAlgebra&#45;&gt;NonAssociativeDivisionAlgebra</title>
<path fill="none" stroke="#666666" d="M544.21,-269C554.72,-269 565.77,-269 576.78,-269"/>
<polygon fill="#666666" stroke="#666666" points="576.87,-272.5 586.87,-269 576.87,-265.5 576.87,-272.5"/>
</g>
<!-- Algebra -->
<g id="node27" class="node">
<title>Algebra</title>
<path fill="white" stroke="#444444" d="M687,-205C687,-205 657,-205 657,-205 651,-205 645,-199 645,-193 645,-193 645,-181 645,-181 645,-175 651,-169 657,-169 657,-169 687,-169 687,-169 693,-169 699,-175 699,-181 699,-181 699,-193 699,-193 699,-199 693,-205 687,-205"/>
<text text-anchor="middle" x="672" y="-184.5" font-family="Helvetica,sans-Serif" font-size="10.00" fill="#111111">Algebra</text>
</g>
<!-- Algebra&#45;&gt;Ring -->
<g id="edge4" class="edge">
<title>Algebra&#45;&gt;Ring</title>
<path fill="none" stroke="#666666" d="M699.16,-193.66C715.76,-197.93 737.67,-203.66 757,-209 781.82,-215.86 809.68,-223.97 831.15,-230.31"/>
<polygon fill="#666666" stroke="#666666" points="830.25,-233.69 840.83,-233.17 832.24,-226.98 830.25,-233.69"/>
</g>
<!-- RModule -->
<g id="node33" class="node">
<title>RModule</title>
<path fill="white" stroke="#444444" d="M885.5,-72C885.5,-72 850.5,-72 850.5,-72 844.5,-72 838.5,-66 838.5,-60 838.5,-60 838.5,-48 838.5,-48 838.5,-42 844.5,-36 850.5,-36 850.5,-36 885.5,-36 885.5,-36 891.5,-36 897.5,-42 897.5,-48 897.5,-48 897.5,-60 897.5,-60 897.5,-66 891.5,-72 885.5,-72"/>
<text text-anchor="middle" x="868" y="-51.5" font-family="Helvetica,sans-Serif" font-size="10.00" fill="#111111">RModule</text>
</g>
<!-- Algebra&#45;&gt;RModule -->
<g id="edge3" class="edge">
<title>Algebra&#45;&gt;RModule</title>
<path fill="none" stroke="#666666" d="M699.28,-182.61C717.18,-178.51 740.53,-170.86 757,-157 786.7,-132.01 770.81,-106.58 800,-81 808.22,-73.8 818.61,-68.37 828.74,-64.34"/>
<polygon fill="#666666" stroke="#666666" points="830.07,-67.58 838.29,-60.9 827.69,-61 830.07,-67.58"/>
</g>
<!-- StarAlgebra -->
<g id="node28" class="node">
<title>StarAlgebra</title>
<path fill="white" stroke="#444444" d="M502.5,-219C502.5,-219 452.5,-219 452.5,-219 446.5,-219 440.5,-213 440.5,-207 440.5,-207 440.5,-195 440.5,-195 440.5,-189 446.5,-183 452.5,-183 452.5,-183 502.5,-183 502.5,-183 508.5,-183 514.5,-189 514.5,-195 514.5,-195 514.5,-207 514.5,-207 514.5,-213 508.5,-219 502.5,-219"/>
<text text-anchor="middle" x="477.5" y="-198.5" font-family="Helvetica,sans-Serif" font-size="10.00" fill="#111111">StarAlgebra</text>
</g>
<!-- StarAlgebra&#45;&gt;InvolutiveRing -->
<g id="edge48" class="edge">
<title>StarAlgebra&#45;&gt;InvolutiveRing</title>
<path fill="none" stroke="#666666" d="M514.71,-206.08C543.92,-210.18 585.43,-216 618.32,-220.61"/>
<polygon fill="#666666" stroke="#666666" points="617.84,-224.08 628.23,-222 618.82,-217.15 617.84,-224.08"/>
</g>
<!-- StarAlgebra&#45;&gt;Algebra -->
<g id="edge47" class="edge">
<title>StarAlgebra&#45;&gt;Algebra</title>
<path fill="none" stroke="#666666" d="M514.71,-198.37C549.06,-195.87 600.39,-192.14 634.75,-189.64"/>
<polygon fill="#666666" stroke="#666666" points="635.11,-193.12 644.83,-188.9 634.6,-186.14 635.11,-193.12"/>
</g>
<!-- ModuleCore -->
<g id="node29" class="node">
<title>ModuleCore</title>
<path fill="white" stroke="#444444" d="M1069.5,-44C1069.5,-44 1018.5,-44 1018.5,-44 1012.5,-44 1006.5,-38 1006.5,-32 1006.5,-32 1006.5,-20 1006.5,-20 1006.5,-14 1012.5,-8 1018.5,-8 1018.5,-8 1069.5,-8 1069.5,-8 1075.5,-8 1081.5,-14 1081.5,-20 1081.5,-20 1081.5,-32 1081.5,-32 1081.5,-38 1075.5,-44 1069.5,-44"/>
<text text-anchor="middle" x="1044" y="-23.5" font-family="Helvetica,sans-Serif" font-size="10.00" fill="#111111">ModuleCore</text>
</g>
<!-- LeftRModule -->
<g id="node30" class="node">
<title>LeftRModule</title>
<path fill="white" stroke="#444444" d="M1070.5,-85C1070.5,-85 1017.5,-85 1017.5,-85 1011.5,-85 1005.5,-79 1005.5,-73 1005.5,-73 1005.5,-61 1005.5,-61 1005.5,-55 1011.5,-49 1017.5,-49 1017.5,-49 1070.5,-49 1070.5,-49 1076.5,-49 1082.5,-55 1082.5,-61 1082.5,-61 1082.5,-73 1082.5,-73 1082.5,-79 1076.5,-85 1070.5,-85"/>
<text text-anchor="middle" x="1044" y="-64.5" font-family="Helvetica,sans-Serif" font-size="10.00" fill="#111111">LeftRModule</text>
</g>
<!-- RightRModule -->
<g id="node31" class="node">
<title>RightRModule</title>
<path fill="white" stroke="#444444" d="M1074.5,-126C1074.5,-126 1013.5,-126 1013.5,-126 1007.5,-126 1001.5,-120 1001.5,-114 1001.5,-114 1001.5,-102 1001.5,-102 1001.5,-96 1007.5,-90 1013.5,-90 1013.5,-90 1074.5,-90 1074.5,-90 1080.5,-90 1086.5,-96 1086.5,-102 1086.5,-102 1086.5,-114 1086.5,-114 1086.5,-120 1080.5,-126 1074.5,-126"/>
<text text-anchor="middle" x="1044" y="-105.5" font-family="Helvetica,sans-Serif" font-size="10.00" fill="#111111">RightRModule</text>
</g>
<!-- RSBiModule -->
<g id="node32" class="node">
<title>RSBiModule</title>
<path fill="white" stroke="#444444" d="M893.5,-126C893.5,-126 842.5,-126 842.5,-126 836.5,-126 830.5,-120 830.5,-114 830.5,-114 830.5,-102 830.5,-102 830.5,-96 836.5,-90 842.5,-90 842.5,-90 893.5,-90 893.5,-90 899.5,-90 905.5,-96 905.5,-102 905.5,-102 905.5,-114 905.5,-114 905.5,-120 899.5,-126 893.5,-126"/>
<text text-anchor="middle" x="868" y="-105.5" font-family="Helvetica,sans-Serif" font-size="10.00" fill="#111111">RSBiModule</text>
</g>
<!-- RSBiModule&#45;&gt;LeftRModule -->
<g id="edge28" class="edge">
<title>RSBiModule&#45;&gt;LeftRModule</title>
<path fill="none" stroke="#666666" d="M905.9,-99.3C931.93,-93.17 967.04,-84.9 995.22,-78.26"/>
<polygon fill="#666666" stroke="#666666" points="996.32,-81.6 1005.25,-75.89 994.72,-74.78 996.32,-81.6"/>
</g>
<!-- RSBiModule&#45;&gt;RightRModule -->
<g id="edge29" class="edge">
<title>RSBiModule&#45;&gt;RightRModule</title>
<path fill="none" stroke="#666666" d="M905.9,-108C930.67,-108 963.65,-108 991.06,-108"/>
<polygon fill="#666666" stroke="#666666" points="991.27,-111.5 1001.27,-108 991.27,-104.5 991.27,-111.5"/>
</g>
<!-- RModule&#45;&gt;ModuleCore -->
<g id="edge32" class="edge">
<title>RModule&#45;&gt;ModuleCore</title>
<path fill="none" stroke="#666666" d="M897.73,-49.38C924.44,-45.08 964.71,-38.6 996.09,-33.55"/>
<polygon fill="#666666" stroke="#666666" points="997.03,-36.94 1006.35,-31.9 995.92,-30.03 997.03,-36.94"/>
</g>
<!-- RModule&#45;&gt;LeftRModule -->
<g id="edge30" class="edge">
<title>RModule&#45;&gt;LeftRModule</title>
<path fill="none" stroke="#666666" d="M897.73,-56.15C924.18,-58.12 963.93,-61.09 995.17,-63.43"/>
<polygon fill="#666666" stroke="#666666" points="995.17,-66.94 1005.4,-64.19 995.69,-59.96 995.17,-66.94"/>
</g>
<!-- RModule&#45;&gt;RightRModule -->
<g id="edge31" class="edge">
<title>RModule&#45;&gt;RightRModule</title>
<path fill="none" stroke="#666666" d="M897.73,-62.92C923.17,-70.81 960.89,-82.52 991.53,-92.03"/>
<polygon fill="#666666" stroke="#666666" points="990.61,-95.41 1001.2,-95.03 992.68,-88.72 990.61,-95.41"/>
</g>
<!-- VectorSpace -->
<g id="node34" class="node">
<title>VectorSpace</title>
<path fill="white" stroke="#444444" d="M698.5,-72C698.5,-72 645.5,-72 645.5,-72 639.5,-72 633.5,-66 633.5,-60 633.5,-60 633.5,-48 633.5,-48 633.5,-42 639.5,-36 645.5,-36 645.5,-36 698.5,-36 698.5,-36 704.5,-36 710.5,-42 710.5,-48 710.5,-48 710.5,-60 710.5,-60 710.5,-66 704.5,-72 698.5,-72"/>
<text text-anchor="middle" x="672" y="-51.5" font-family="Helvetica,sans-Serif" font-size="10.00" fill="#111111">VectorSpace</text>
</g>
<!-- VectorSpace&#45;&gt;RModule -->
<g id="edge49" class="edge">
<title>VectorSpace&#45;&gt;RModule</title>
<path fill="none" stroke="#666666" d="M710.87,-54C744.74,-54 794.18,-54 828.31,-54"/>
<polygon fill="#666666" stroke="#666666" points="828.37,-57.5 838.37,-54 828.37,-50.5 828.37,-57.5"/>
</g>
<!-- InnerProductSpace -->
<g id="node35" class="node">
<title>InnerProductSpace</title>
<path fill="white" stroke="#444444" d="M519,-72C519,-72 436,-72 436,-72 430,-72 424,-66 424,-60 424,-60 424,-48 424,-48 424,-42 430,-36 436,-36 436,-36 519,-36 519,-36 525,-36 531,-42 531,-48 531,-48 531,-60 531,-60 531,-66 525,-72 519,-72"/>
<text text-anchor="middle" x="477.5" y="-51.5" font-family="Helvetica,sans-Serif" font-size="10.00" fill="#111111">InnerProductSpace</text>
</g>
<!-- InnerProductSpace&#45;&gt;VectorSpace -->
<g id="edge18" class="edge">
<title>InnerProductSpace&#45;&gt;VectorSpace</title>
<path fill="none" stroke="#666666" d="M531.1,-54C559.83,-54 595.13,-54 623.09,-54"/>
<polygon fill="#666666" stroke="#666666" points="623.41,-57.5 633.41,-54 623.41,-50.5 623.41,-57.5"/>
</g>
<!-- JoinSemilattice -->
<g id="node36" class="node">
<title>JoinSemilattice</title>
<path fill="white" stroke="#444444" d="M608.5,-744C608.5,-744 542.5,-744 542.5,-744 536.5,-744 530.5,-738 530.5,-732 530.5,-732 530.5,-720 530.5,-720 530.5,-714 536.5,-708 542.5,-708 542.5,-708 608.5,-708 608.5,-708 614.5,-708 620.5,-714 620.5,-720 620.5,-720 620.5,-732 620.5,-732 620.5,-738 614.5,-744 608.5,-744"/>
<text text-anchor="middle" x="575.5" y="-723.5" font-family="Helvetica,sans-Serif" font-size="10.00" fill="#111111">JoinSemilattice</text>
</g>
<!-- MeetSemilattice -->
<g id="node37" class="node">
<title>MeetSemilattice</title>
<path fill="white" stroke="#444444" d="M612,-798C612,-798 539,-798 539,-798 533,-798 527,-792 527,-786 527,-786 527,-774 527,-774 527,-768 533,-762 539,-762 539,-762 612,-762 612,-762 618,-762 624,-768 624,-774 624,-774 624,-786 624,-786 624,-792 618,-798 612,-798"/>
<text text-anchor="middle" x="575.5" y="-777.5" font-family="Helvetica,sans-Serif" font-size="10.00" fill="#111111">MeetSemilattice</text>
</g>
<!-- Lattice -->
<g id="node38" class="node">
<title>Lattice</title>
<path fill="white" stroke="#444444" d="M472,-771C472,-771 442,-771 442,-771 436,-771 430,-765 430,-759 430,-759 430,-747 430,-747 430,-741 436,-735 442,-735 442,-735 472,-735 472,-735 478,-735 484,-741 484,-747 484,-747 484,-759 484,-759 484,-765 478,-771 472,-771"/>
<text text-anchor="middle" x="457" y="-750.5" font-family="Helvetica,sans-Serif" font-size="10.00" fill="#111111">Lattice</text>
</g>
<!-- Lattice&#45;&gt;JoinSemilattice -->
<g id="edge22" class="edge">
<title>Lattice&#45;&gt;JoinSemilattice</title>
<path fill="none" stroke="#666666" d="M484.14,-746.94C494.84,-744.46 507.63,-741.5 520.18,-738.59"/>
<polygon fill="#666666" stroke="#666666" points="521.19,-741.95 530.14,-736.28 519.61,-735.13 521.19,-741.95"/>
</g>
<!-- Lattice&#45;&gt;MeetSemilattice -->
<g id="edge23" class="edge">
<title>Lattice&#45;&gt;MeetSemilattice</title>
<path fill="none" stroke="#666666" d="M484.14,-759.06C493.9,-761.32 505.4,-763.99 516.87,-766.64"/>
<polygon fill="#666666" stroke="#666666" points="516.37,-770.12 526.9,-768.97 517.95,-763.3 516.37,-770.12"/>
</g>
<!-- BoundedLattice -->
<g id="node39" class="node">
<title>BoundedLattice</title>
<path fill="white" stroke="#444444" d="M375,-771C375,-771 307,-771 307,-771 301,-771 295,-765 295,-759 295,-759 295,-747 295,-747 295,-741 301,-735 307,-735 307,-735 375,-735 375,-735 381,-735 387,-741 387,-747 387,-747 387,-759 387,-759 387,-765 381,-771 375,-771"/>
<text text-anchor="middle" x="341" y="-750.5" font-family="Helvetica,sans-Serif" font-size="10.00" fill="#111111">BoundedLattice</text>
</g>
<!-- BoundedLattice&#45;&gt;Lattice -->
<g id="edge24" class="edge">
<title>BoundedLattice&#45;&gt;Lattice</title>
<path fill="none" stroke="#666666" d="M387.06,-753C397.98,-753 409.51,-753 419.96,-753"/>
<polygon fill="#666666" stroke="#666666" points="419.98,-756.5 429.98,-753 419.98,-749.5 419.98,-756.5"/>
</g>
<!-- DistributiveLattice -->
<g id="node40" class="node">
<title>DistributiveLattice</title>
<path fill="white" stroke="#444444" d="M240,-771C240,-771 157,-771 157,-771 151,-771 145,-765 145,-759 145,-759 145,-747 145,-747 145,-741 151,-735 157,-735 157,-735 240,-735 240,-735 246,-735 252,-741 252,-747 252,-747 252,-759 252,-759 252,-765 246,-771 240,-771"/>
<text text-anchor="middle" x="198.5" y="-750.5" font-family="Helvetica,sans-Serif" font-size="10.00" fill="#111111">DistributiveLattice</text>
</g>
<!-- DistributiveLattice&#45;&gt;BoundedLattice -->
<g id="edge25" class="edge">
<title>DistributiveLattice&#45;&gt;BoundedLattice</title>
<path fill="none" stroke="#666666" d="M252.22,-753C262.84,-753 274.03,-753 284.74,-753"/>
<polygon fill="#666666" stroke="#666666" points="284.82,-756.5 294.82,-753 284.82,-749.5 284.82,-756.5"/>
</g>
<!-- BooleanAlgebra -->
<g id="node41" class="node">
<title>BooleanAlgebra</title>
<path fill="white" stroke="#444444" d="M90,-771C90,-771 20,-771 20,-771 14,-771 8,-765 8,-759 8,-759 8,-747 8,-747 8,-741 14,-735 20,-735 20,-735 90,-735 90,-735 96,-735 102,-741 102,-747 102,-747 102,-759 102,-759 102,-765 96,-771 90,-771"/>
<text text-anchor="middle" x="55" y="-750.5" font-family="Helvetica,sans-Serif" font-size="10.00" fill="#111111">BooleanAlgebra</text>
</g>
<!-- BooleanAlgebra&#45;&gt;DistributiveLattice -->
<g id="edge5" class="edge">
<title>BooleanAlgebra&#45;&gt;DistributiveLattice</title>
<path fill="none" stroke="#666666" d="M102.33,-753C112.59,-753 123.64,-753 134.44,-753"/>
<polygon fill="#666666" stroke="#666666" points="134.68,-756.5 144.68,-753 134.68,-749.5 134.68,-756.5"/>
</g>
</g>
</svg>
